<svg xmlns="http://www.w3.org/2000/svg" width="360" height="360" fill="none" viewBox="0 0 360 360"><path fill="#3e63dd" fill-rule="evenodd" d="M180 360c99.411 0 180-80.589 180-180S279.411 0 180 0 0 80.589 0 180s80.589 180 180 180m1-57c69.036 0 125-55.964 125-125S250.036 53 181 53 56 108.964 56 178s55.964 125 125 125" clip-rule="evenodd"/><path stroke="#3e63dd" stroke-linecap="round" stroke-linejoin="round" stroke-width="10" d="m159.28 192.333-12.642-12.58m53.959 18.747-15.17-15.17m-65.429 56.487s60.865-21.584 78.502-39.22a27.76 27.76 0 0 0 6.04-30.242 27.75 27.75 0 0 0-15.009-15.033 27.76 27.76 0 0 0-21.242-.016 27.8 27.8 0 0 0-9.009 6.009c-17.698 17.698-39.282 78.502-39.282 78.502"/><path stroke="#3e63dd" stroke-linecap="round" stroke-linejoin="round" stroke-width="10" d="M241.667 161.5s-8.202-12.333-21.584-12.333c-10.113 0-21.583 12.333-21.583 12.333s8.202 12.333 21.583 12.333c13.382 0 21.584-12.333 21.584-12.333"/><path stroke="#3e63dd" stroke-linecap="round" stroke-linejoin="round" stroke-width="10" d="M198.5 118.333s-12.333 8.202-12.333 21.584S198.5 161.5 198.5 161.5s12.333-11.347 12.333-21.583c0-13.382-12.333-21.584-12.333-21.584"/></svg>