<svg xmlns="http://www.w3.org/2000/svg" width="1325" height="360" fill="none" viewBox="0 0 1325 360"><path fill="#3e63dd" fill-rule="evenodd" d="M180 360c99.411 0 180-80.589 180-180S279.411 0 180 0 0 80.589 0 180s80.589 180 180 180m1-57c69.036 0 125-55.964 125-125S250.036 53 181 53 56 108.964 56 178s55.964 125 125 125" clip-rule="evenodd"/><path stroke="#3e63dd" stroke-linecap="round" stroke-linejoin="round" stroke-width="15" d="m159.28 192.333-12.642-12.58m53.959 18.747-15.17-15.17m-65.429 56.487s60.865-21.584 78.502-39.22a27.76 27.76 0 0 0 6.04-30.242 27.75 27.75 0 0 0-15.009-15.033 27.76 27.76 0 0 0-21.242-.016 27.8 27.8 0 0 0-9.009 6.009c-17.698 17.698-39.282 78.502-39.282 78.502"/><path stroke="#3e63dd" stroke-linecap="round" stroke-linejoin="round" stroke-width="15" d="M241.667 161.5s-8.202-12.333-21.584-12.333c-10.113 0-21.583 12.333-21.583 12.333s8.202 12.333 21.583 12.333c13.382 0 21.584-12.333 21.584-12.333"/><path stroke="#3e63dd" stroke-linecap="round" stroke-linejoin="round" stroke-width="15" d="M198.5 118.333s-12.333 8.202-12.333 21.584S198.5 161.5 198.5 161.5s12.333-11.347 12.333-21.583c0-13.382-12.333-21.584-12.333-21.584"/><path fill="#3e63dd" d="M434.011 166.705q-8.105 0-13.148-4.522Q416 157.661 416 150.425q0-7.416 4.863-11.757 5.043-4.522 13.148-4.522t12.968 4.522q5.044 4.341 5.044 11.757 0 7.236-5.044 11.758-4.863 4.522-12.968 4.522m0 70.545q-8.105 0-13.148-4.522Q416 228.206 416 220.97q0-7.416 4.863-11.757 5.043-4.522 13.148-4.522t12.968 4.522q5.044 4.341 5.044 11.757 0 7.236-5.044 11.758-4.863 4.522-12.968 4.522M500.583 235.441v-24.6h34.221v-50.467h-29.719v-24.419h54.935v74.886h28.818v24.6zm45.028-115.223q-7.385 0-11.888-3.799-4.322-3.798-4.322-10.31t4.322-10.31q4.503-3.8 11.888-3.799t11.707 3.799q4.503 3.798 4.503 10.31t-4.503 10.31q-4.323 3.8-11.707 3.799M650.546 237.25q-13.149 0-23.054-4.884-9.907-5.065-15.31-13.928-5.403-9.045-5.403-20.983V173.94q0-12.118 5.403-20.982t15.31-13.747q9.906-5.065 23.054-5.065 19.632 0 31.34 9.949 11.706 9.948 12.427 27.132h-27.017q-.54-6.33-5.043-9.948-4.323-3.618-11.707-3.618-8.105 0-12.428 4.16t-4.323 12.119v23.515q0 7.778 4.323 12.12 4.323 4.16 12.428 4.16 7.384 0 11.707-3.437 4.503-3.618 5.043-10.129h27.017q-.72 17.184-12.427 27.132-11.708 9.95-31.34 9.949M758.003 237.25q-13.149 0-22.874-4.884-9.727-5.065-15.13-13.928-5.223-9.045-5.223-20.983V173.94q0-11.938 5.223-20.801 5.403-9.044 15.13-13.928 9.725-5.065 22.874-5.065 13.328 0 22.874 5.065 9.726 4.883 14.949 13.928 5.404 8.863 5.404 20.801v23.515q0 11.938-5.404 20.983-5.223 8.863-14.949 13.928-9.546 4.884-22.874 4.884m0-23.515q7.925 0 12.067-4.16 4.143-4.342 4.143-12.12V173.94q0-7.959-4.143-12.119t-12.067-4.16q-7.745 0-12.068 4.16-4.142 4.16-4.142 12.119v23.515q0 7.778 4.142 12.12 4.323 4.16 12.068 4.16M823.854 235.441v-99.486h26.116v18.993h7.925l-7.925 6.331q0-12.663 7.204-19.898 7.205-7.235 19.453-7.235 14.408 0 23.054 10.129 8.826 10.13 8.826 26.952v64.214H881.49V173.94q0-7.777-4.143-11.938-3.963-4.341-11.347-4.341-7.204 0-11.167 4.341-3.963 4.16-3.962 11.938v61.501zM932.571 235.441v-24.6h34.222v-50.467h-29.719v-24.419h54.934v74.886h28.822v24.6zm45.028-115.223q-7.384 0-11.887-3.799-4.323-3.798-4.323-10.31t4.323-10.31q4.503-3.8 11.887-3.799t11.708 3.799q4.503 3.798 4.503 10.31t-4.503 10.31q-4.323 3.8-11.708 3.799M1063.08 235.441v-63.309h-26.29v-24.42h26.29v-13.566c0-9.285 3.12-16.702 9.37-22.249 6.36-5.667 14.65-8.501 24.85-8.501h29v23.515h-28.1q-3.6 0-5.94 2.351-2.16 2.171-2.16 5.788v12.662h36.2v24.42h-36.2v63.309zM1164.24 268l13.5-37.443-37.1-94.602H1170l14.95 43.412q1.62 4.884 3.24 11.938 1.8 6.874 2.7 11.215.9-4.34 2.52-11.215c1.2-4.703 2.35-8.682 3.43-11.938l14.4-43.412h28.1L1192.51 268zM1297.99 166.705c-5.4 0-9.79-1.507-13.15-4.522q-4.86-4.522-4.86-11.758 0-7.416 4.86-11.757c3.36-3.015 7.75-4.522 13.15-4.522s9.72 1.507 12.97 4.522q5.04 4.341 5.04 11.757 0 7.236-5.04 11.758c-3.25 3.015-7.57 4.522-12.97 4.522m0 70.545c-5.4 0-9.79-1.508-13.15-4.522q-4.86-4.522-4.86-11.758 0-7.416 4.86-11.757c3.36-3.015 7.75-4.522 13.15-4.522s9.72 1.507 12.97 4.522q5.04 4.341 5.04 11.757 0 7.236-5.04 11.758c-3.25 3.014-7.57 4.522-12.97 4.522"/></svg>